<svg width="1579" height="406" viewBox="0 0 1579 406" fill="none" xmlns="http://www.w3.org/2000/svg">
<path fill-rule="evenodd" clip-rule="evenodd" d="M1375.69 130.889C1386.17 136.107 1397.52 138.453 1409.73 137.928C1421.94 137.403 1432.98 134.094 1442.84 128C1452.71 121.908 1460.39 113.69 1465.87 103.349C1471.35 92.8854 1473.82 81.3187 1473.27 68.6496C1472.72 55.9802 1469.27 44.7298 1462.91 34.8981C1456.68 25.0612 1448.32 17.5338 1437.84 12.316C1427.48 7.09289 1416.2 4.74388 1403.99 5.2691C1391.78 5.79424 1380.68 9.10608 1370.69 15.2045C1360.82 21.2978 1353.08 29.5174 1347.48 39.8636C1341.99 50.2046 1339.53 61.7097 1340.07 74.3793C1340.62 87.0481 1344.08 98.3606 1350.44 108.315C1356.92 118.141 1365.34 125.666 1375.69 130.889ZM1432.83 97.7468C1426.96 104.9 1418.84 108.7 1408.48 109.145C1398 109.596 1389.47 106.574 1382.89 100.08C1376.42 93.4571 1372.94 84.4257 1372.45 72.9861C1371.95 61.4241 1374.63 52.1278 1380.51 45.0973C1386.51 38.0616 1394.75 34.3183 1405.23 33.8673C1415.59 33.4217 1424 36.5104 1430.46 43.1333C1437.05 49.6279 1440.59 58.5949 1441.08 70.0342C1441.57 81.3505 1438.82 90.588 1432.83 97.7468Z" fill="#F35555"/>
<path d="M1533.33 132.611C1523.83 133.02 1515.25 131.848 1507.6 129.097C1499.94 126.346 1493.7 122.055 1488.88 116.223C1484.18 110.388 1481.52 103.231 1480.91 94.7543L1514.58 93.3057C1515.28 98.0822 1517.1 101.7 1520.05 104.162C1522.99 106.5 1526.75 107.57 1531.31 107.374C1535.99 107.173 1539.65 105.968 1542.27 103.76C1544.89 101.429 1546.12 98.357 1545.95 94.5445C1545.81 91.3459 1544.59 88.7493 1542.28 86.7534C1540.09 84.7529 1537.37 83.1448 1534.1 81.9296C1530.96 80.7093 1526.45 79.3626 1520.58 77.8904C1512.08 75.6676 1505.13 73.3791 1499.71 71.0242C1494.3 68.6692 1489.57 65.0524 1485.53 60.1737C1481.49 55.2951 1479.29 48.7966 1478.94 40.6784C1478.42 28.624 1482.39 19.0259 1490.85 11.8841C1499.31 4.61929 1510.57 0.684474 1524.63 0.0797032C1538.94 -0.535676 1550.62 2.4124 1559.67 8.92392C1568.72 15.3125 1573.81 24.5821 1574.96 36.7329L1540.73 38.205C1540.31 34.0336 1538.62 30.8403 1535.69 28.6252C1532.74 26.2872 1529.05 25.2136 1524.61 25.4046C1520.79 25.5691 1517.75 26.7473 1515.5 28.9391C1513.24 31.0079 1512.19 33.9489 1512.36 37.762C1512.54 41.9441 1514.65 45.1188 1518.7 47.2861C1522.75 49.4535 1529.03 51.7098 1537.53 54.0551C1546.04 56.5234 1552.94 58.9377 1558.23 61.2979C1563.64 63.6529 1568.37 67.2082 1572.4 71.9637C1576.44 76.7195 1578.63 82.9719 1578.96 90.721C1579.28 98.1014 1577.66 104.887 1574.1 111.079C1570.66 117.266 1565.44 122.295 1558.44 126.171C1551.44 130.045 1543.07 132.193 1533.33 132.611Z" fill="#F35555"/>
<path d="M1234.27 237.312L1200.41 299.24L1153.64 384.787L1078.99 392.029L1155.64 244.94L1190.31 182.414L1236.87 98.4118L1311.52 91.1698L1234.27 237.312Z" fill="#BDD1FF"/>
<path d="M1340.02 366.706L1234.27 237.312L1200.41 299.24L1261.39 374.334L1340.02 366.706Z" fill="#E8EFFF"/>
<path d="M1052 116.347L1155.64 244.94L1190.31 182.414L1130.63 108.719L1052 116.347Z" fill="#E8EFFF"/>
<path d="M1090.54 243.499C1089.89 253.478 1088.65 262.416 1086.8 270.314L815.169 252.742L815.009 252.731C814.691 245.913 814.766 238.903 815.232 231.702C815.813 222.708 816.948 214.096 818.636 205.868L818.796 205.878L1090.7 223.468C1091.04 229.965 1090.98 236.642 1090.54 243.499Z" fill="#BDD1FF"/>
<path d="M902.81 305.509C891.234 293.404 885.26 277.318 884.888 257.252L815.169 252.742C816.098 272.695 820.379 291.009 828.013 307.685C838.59 330.082 853.969 347.945 874.15 361.276C894.686 374.295 918.26 381.666 944.87 383.387C977.801 385.518 1006.13 378.832 1029.84 363.331C1053.58 347.497 1070.3 326.533 1080.01 300.438L1004.66 295.564C992.246 317.14 973.063 327.09 947.118 325.411C929.155 324.249 914.387 317.615 902.81 305.509Z" fill="#E8EFFF"/>
<path d="M1086.97 270.324C1088.81 262.427 1090.06 253.489 1090.7 243.51C1092.45 216.566 1088.17 192.407 1077.86 171.029C1067.9 149.341 1052.81 132.165 1032.59 119.499C1012.7 106.856 989.612 99.6838 963.333 97.9837C936.057 96.2192 911.564 100.48 889.855 110.767C868.145 121.054 850.771 136.631 837.729 157.499C828.789 171.807 822.478 187.933 818.796 205.878L888.421 210.382C892.288 191.926 900.376 177.919 912.684 168.361C925.348 158.491 940.329 154.116 957.626 155.235C975.921 156.418 991.034 162.907 1002.96 174.702C1014.92 186.165 1020.48 200.887 1019.65 218.871L1090.7 223.468C1091.04 229.965 1090.98 236.642 1090.54 243.499C1089.89 253.478 1088.65 262.416 1086.8 270.314L1086.97 270.324Z" fill="#E8EFFF"/>
<path d="M734.692 15.488L805.481 10.0123L834.016 378.91L763.227 384.386L760.085 343.76L753.521 258.906L751.573 233.724L744.817 146.382L734.692 15.488Z" fill="#BDD1FF"/>
<path d="M546.482 186.513C537.186 208.963 533.617 234.147 535.777 262.063C537.962 290.312 545.386 314.98 558.05 336.066C571.02 356.794 587.607 372.394 607.808 382.868C628.009 393.341 649.742 397.678 673.005 395.878C693.611 394.284 711.401 388.729 726.379 379.212C741.265 369.755 752.499 357.937 760.085 343.76L753.521 258.906C753.157 270.709 750.86 281.37 746.628 290.888C740.906 303.366 732.653 313.365 721.867 320.887C711.057 328.075 699.17 332.171 686.209 333.173C673.58 334.15 661.358 331.753 649.545 325.979C638.063 320.181 628.358 311.403 620.427 299.647C612.803 287.532 608.349 273.166 607.064 256.549C605.778 239.932 607.996 225.384 613.718 212.906C619.746 200.07 627.999 190.069 638.478 182.907C648.957 175.744 660.677 171.661 673.638 170.659C686.599 169.656 698.987 172.041 710.8 177.814C722.588 183.254 732.281 191.866 739.879 203.648C745.506 212.156 749.404 222.181 751.573 233.724L744.817 146.382C734.201 134.266 720.502 125.033 703.719 118.684C686.818 111.968 669.393 109.303 651.447 110.692C627.851 112.517 606.864 119.991 588.489 133.114C570.113 146.237 556.11 164.036 546.482 186.513Z" fill="#E8EFFF"/>
<path d="M314.806 354.426L245 349.223L265.59 72.9889L335.396 78.1922L314.806 354.426Z" fill="#BDD1FF"/>
<path d="M496.56 117.781C477.843 95.3281 452.032 82.875 419.123 80.422C401.837 79.1335 385.621 81.4345 370.475 87.325C355.685 92.908 343.191 101.336 332.992 112.609L335.557 78.2041L335.396 78.1922L314.806 354.426L314.966 354.438L326.339 201.861C327.975 179.922 334.711 163.544 346.547 152.727C358.741 141.603 374.478 136.759 393.758 138.196C412.706 139.609 427.218 146.707 437.296 159.492C447.398 171.944 451.632 189.139 449.996 211.078L438.623 363.655L508.43 368.858L520.509 206.808C523.284 169.578 515.301 139.903 496.56 117.781Z" fill="#E8EFFF"/>
<path d="M255.864 369.172L231.834 21.0001L162 25.8199L186.031 373.992L255.864 369.172Z" fill="#E8EFFF"/>
<path d="M140.5 39.5L171.5 354L77.5 73L140.5 39.5Z" fill="#55A5F3"/>
<path d="M67.5 95.5L166 369.5L29.5 136L67.5 95.5Z" fill="#55A5F3"/>
<path d="M24 160L157.5 379.5L0 203.5L24 160Z" fill="#55A5F3"/>
</svg>
